P1
12 17
00000011111100000
00001100010010000
00010000100001000
01111000100010100
10000100100010100
10000010010000100
10000010001111110
01000100010000001
00111000101111110
00100000010000010
00011000001111100
00000111110000000