P1
13 13
0000001000000
0000010100000
0000010100000
0000100010000
1111100011111
1000000000001
0100010100010
0010010100100
0001000001000
0010000000100
0010001000100
0100110110010
0111000001110