P1
#8
5 6
011100
100010
111110
100010
011100
