P1
#4
5 6
100000
100100
111110
000100
000100
