P1
#3
5 6
111110
000010
001110
000010
111110
