P1
#1
5 6
000100
001100
000100
000100
001110
