P1
#9
5 6
111110
100010
111110
000010
111110
