P1
#6
5 6
111110
100000
111110
100010
111110
