P1
#7
5 6
111100
000100
001110
000100
000100
