P1
#5
5 6
111110
100000
111110
000010
111110
