P1
#0
5 6
011100
100010
100010
100010
011100
