P1
#Le chiffre 4 en pbm
5 5
10000
10010
11111
00010
00010