P1
#Le chiffre 1 en pbm
5 5
00010
00110
00010
00010
00111
