P1
6 6
001111
001100
001100
101101
011110
001100