P1
6 6
001001
010001
111111
111111
010000
001000