P1
5 5
01111
01011
00010
11010
01100

