P1
9 9
001111100
010000010
100000001
100000001
101101101
101101101
010010010
001000100
000111000