P1
# Le chiffre 5 en pbm
5 5
11111
10000
11111
00001
11111
