P1
#2
5 6
111110
000010
111110
100000
111110
