P1
#7
5 6
111110
000010
000010
000010
000010
