P1
#0
5 6
111110
100010
100010
100010
111110
