P1
#  Le chiffre 7 en pbm	
5 5
11111
00010
01110
01000
10000