P1
#  Le chiffre 6 en pbm
5 5
11111
10000
11111
10001
11111