P1
#  Le chiffre 0
5 5
01110
10001
10001
10001
01110