P1
#  Le chiffre 9
5 5
11111
10001
11111
00001
11111