P1
#  Le chiffre 8
5 5
01110
10001
11111
10001
01110
