P1
#Le chiffre 3 en pbm
5 5
11111
00001
00111
00001
11111